<svg width="50" height="50" viewBox="0 0 50 50" fill="none" xmlns="http://www.w3.org/2000/svg">
  <g clip-path="url(#clip0_99_37)">
    <path
      d="M25 0C18.3711 0 12.0078 2.63555 7.32422 7.32227C2.63579 12.0108 0.00129871 18.3695 0 25C0 31.6277 2.63672 37.991 7.32422 42.6777C12.0078 47.3645 18.3711 50 25 50C31.6289 50 37.9922 47.3645 42.6758 42.6777C47.3633 37.991 50 31.6277 50 25C50 18.3723 47.3633 12.009 42.6758 7.32227C37.9922 2.63555 31.6289 0 25 0Z"
      fill="url(#paint0_linear_99_37)" />
    <path
      d="M11.3165 24.736C18.6056 21.561 23.4649 19.4676 25.8946 18.4563C32.8399 15.5684 34.2813 15.0668 35.2227 15.0498C35.4298 15.0465 35.8907 15.0977 36.1915 15.3408C36.4415 15.5459 36.5118 15.8233 36.547 16.018C36.5782 16.2125 36.6212 16.6559 36.586 17.002C36.211 20.9551 34.5821 30.5481 33.754 34.9758C33.4063 36.8492 32.7149 37.4774 32.047 37.5387C30.5938 37.6723 29.4923 36.5793 28.086 35.6578C25.8868 34.2153 24.6446 33.3176 22.5079 31.9102C20.0392 30.2836 21.6407 29.3895 23.047 27.9285C23.4142 27.5461 29.8126 21.7278 29.9337 21.2C29.9493 21.134 29.9649 20.8879 29.8165 20.7582C29.672 20.6281 29.4571 20.6727 29.3009 20.7078C29.0782 20.7578 25.5665 23.0813 18.754 27.6778C17.7579 28.3629 16.8556 28.6969 16.0431 28.6793C15.1524 28.6602 13.4337 28.1746 12.1563 27.7598C10.5938 27.2508 9.34775 26.9817 9.45713 26.1172C9.51182 25.6672 10.1329 25.2067 11.3165 24.736Z"
      fill="white" />
  </g>
  <defs>
    <linearGradient id="paint0_linear_99_37" x1="2500" y1="0" x2="2500" y2="5000" gradientUnits="userSpaceOnUse">
      <stop stop-color="#2AABEE" />
      <stop offset="1" stop-color="#229ED9" />
    </linearGradient>
    <clipPath id="clip0_99_37">
      <rect width="50" height="50" fill="white" />
    </clipPath>
  </defs>
</svg>