<svg width="50" height="52" viewBox="0 0 50 52" fill="none" xmlns="http://www.w3.org/2000/svg">
  <g clip-path="url(#clip0_99_33)">
    <path
      d="M1.06689 25.6156C1.06572 29.9722 2.17197 34.2261 4.27549 37.9755L0.865723 50.7861L13.6063 47.3486C17.1302 49.3226 21.0785 50.3569 25.0907 50.3572H25.1013C38.3464 50.3572 49.1282 39.2667 49.1339 25.6351C49.1364 19.0296 46.6388 12.8183 42.1009 8.14519C37.5638 3.47249 31.5296 0.89779 25.1003 0.894775C11.8536 0.894775 1.07256 11.9846 1.06709 25.6156"
      fill="url(#paint0_linear_99_33)" />
    <path
      d="M0.208984 25.6076C0.207617 30.1209 1.35352 34.5269 3.53203 38.4105L0 51.6804L13.1975 48.1197C16.8338 50.1598 20.9279 51.2354 25.0939 51.237H25.1047C38.825 51.237 49.9941 39.7476 50 25.6281C50.0023 18.7852 47.4148 12.3506 42.7148 7.51007C38.0143 2.67017 31.7643 0.00281367 25.1047 0C11.382 0 0.214453 11.4878 0.208984 25.6076ZM8.06836 37.7417L7.57559 36.9368C5.5041 33.5475 4.41074 29.6309 4.4123 25.6092C4.4168 13.8732 13.6988 4.32501 25.1125 4.32501C30.6398 4.32742 35.8344 6.54459 39.7414 10.5673C43.6482 14.5905 45.798 19.9384 45.7967 25.6265C45.7916 37.3625 36.5094 46.9118 25.1047 46.9118H25.0965C21.383 46.9098 17.741 45.8836 14.5648 43.9444L13.809 43.4832L5.97734 45.596L8.06836 37.7415V37.7417Z"
      fill="url(#paint1_linear_99_33)" />
    <path
      d="M18.8823 14.902C18.4163 13.8362 17.9259 13.8147 17.4827 13.796C17.1198 13.7799 16.705 13.7811 16.2905 13.7811C15.8757 13.7811 15.2017 13.9417 14.6319 14.5818C14.0616 15.2225 12.4546 16.7709 12.4546 19.92C12.4546 23.0693 14.6837 26.1126 14.9944 26.5401C15.3056 26.9668 19.2978 33.636 25.6204 36.2016C30.8751 38.3338 31.9444 37.9097 33.0849 37.8028C34.2255 37.6963 36.7653 36.2549 37.2835 34.7602C37.8021 33.2658 37.8021 31.9848 37.6466 31.7171C37.4911 31.4504 37.0763 31.2902 36.4542 30.9702C35.8319 30.6501 32.7737 29.1016 32.2036 28.8879C31.6333 28.6745 31.2187 28.568 30.8038 29.2089C30.389 29.8488 29.1978 31.2902 28.8347 31.7171C28.472 32.1449 28.1089 32.1982 27.487 31.878C26.8646 31.5569 24.8612 30.8818 22.4845 28.7014C20.6353 27.0048 19.3868 24.9096 19.0239 24.2687C18.661 23.6288 18.9851 23.2819 19.297 22.9629C19.5765 22.6761 19.9192 22.2155 20.2306 21.8419C20.5407 21.4681 20.6442 21.2014 20.8517 20.7745C21.0593 20.3472 20.9554 19.9734 20.8001 19.6533C20.6442 19.3331 19.4355 16.1675 18.8823 14.902Z"
      fill="white" />
  </g>
  <defs>
    <linearGradient id="paint0_linear_99_33" x1="2414.27" y1="4990.03" x2="2414.27" y2="0.894775"
      gradientUnits="userSpaceOnUse">
      <stop stop-color="#1FAF38" />
      <stop offset="1" stop-color="#60D669" />
    </linearGradient>
    <linearGradient id="paint1_linear_99_33" x1="2500" y1="5168.04" x2="2500" y2="0" gradientUnits="userSpaceOnUse">
      <stop stop-color="#F9F9F9" />
      <stop offset="1" stop-color="white" />
    </linearGradient>
    <clipPath id="clip0_99_33">
      <rect width="50" height="51.8518" fill="white" />
    </clipPath>
  </defs>
</svg>