<svg width="143" height="143" viewBox="0 0 143 143" fill="none" xmlns="http://www.w3.org/2000/svg">
  <rect width="143" height="143" rx="71.5" fill="#EEF1F7" />
  <path
    d="M71.5107 100.972C69.5689 102.923 69.5689 106.077 71.5107 108.027L75.3558 111.89C77.3102 113.853 80.4886 113.853 82.443 111.89L111.722 82.4773C113.663 80.5265 113.663 77.3731 111.722 75.4224L82.443 46.0097C80.4886 44.0462 77.3102 44.0463 75.3558 46.0097L71.5107 49.8724C69.5689 51.8231 69.5689 54.9765 71.5107 56.9273L89.9215 75.4224C91.8634 77.3731 91.8634 80.5265 89.9215 82.4773L71.5107 100.972ZM70.722 42.4774C72.6639 40.5266 72.6639 37.3733 70.722 35.4225L66.8769 31.5598C64.9225 29.5964 61.7442 29.5964 59.7897 31.5598L30.5113 60.9725C28.5695 62.9233 28.5695 66.0766 30.5113 68.0274L59.7897 97.4401C61.7442 99.4035 64.9225 99.4035 66.8769 97.4401L70.722 93.5774C72.6639 91.6267 72.6639 88.4733 70.722 86.5225L52.3113 68.0274C50.3695 66.0766 50.3695 62.9233 52.3113 60.9725L70.722 42.4774Z"
    fill="#0066FF" />
</svg>