<svg width="759" height="371" viewBox="0 0 759 371" fill="none" xmlns="http://www.w3.org/2000/svg">
<rect width="759" height="371" fill="white"/>
<path d="M49.6344 111.852C37.6817 91.0906 44.8051 64.5712 65.5518 52.5931V52.5931C86.3441 40.5887 112.932 47.7395 124.898 68.5541L195 190.5L145 277.5L49.6344 111.852Z" fill="#FEAB00"/>
<rect x="294.052" y="30" width="87" height="310" rx="43.5" transform="rotate(30 294.052 30)" fill="#FEAB00"/>
<rect x="301.651" y="73.0068" width="30.3998" height="34.7427" rx="10" transform="rotate(30 301.651 73.0068)" fill="#F0F1F1"/>
<rect x="275.594" y="118.139" width="30.3998" height="34.7427" rx="10" transform="rotate(30 275.594 118.139)" fill="#F0F1F1"/>
<rect x="249.537" y="163.271" width="30.3998" height="34.7427" rx="10" transform="rotate(30 249.537 163.271)" fill="#F0F1F1"/>
<rect x="223.48" y="208.403" width="30.3998" height="34.7427" rx="10" transform="rotate(30 223.48 208.403)" fill="#F0F1F1"/>
<rect x="197.423" y="253.535" width="30.3998" height="34.7427" rx="10" transform="rotate(30 197.423 253.535)" fill="#F0F1F1"/>
<path d="M412.125 154.469C420.812 154.469 427.312 156.359 431.625 160.141C435.969 163.922 438.141 169.297 438.141 176.266C438.141 179.391 437.688 182.391 436.781 185.266C435.906 188.141 434.453 190.703 432.422 192.953C430.422 195.203 427.75 196.984 424.406 198.297C421.094 199.609 417 200.266 412.125 200.266H406.922V223H388.406V154.469H412.125ZM411.703 169.422H406.922V185.172H410.578C412.172 185.172 413.656 184.906 415.031 184.375C416.406 183.812 417.5 182.922 418.312 181.703C419.156 180.453 419.578 178.797 419.578 176.734C419.578 174.578 418.938 172.828 417.656 171.484C416.375 170.109 414.391 169.422 411.703 169.422ZM491.109 223L487.734 210.156H465.469L462 223H441.656L464.016 154.188H488.719L511.359 223H491.109ZM483.891 194.969L480.938 183.719C480.625 182.5 480.172 180.766 479.578 178.516C478.984 176.234 478.391 173.891 477.797 171.484C477.234 169.047 476.797 167.047 476.484 165.484C476.203 167.047 475.797 168.984 475.266 171.297C474.766 173.578 474.234 175.844 473.672 178.094C473.141 180.344 472.672 182.219 472.266 183.719L469.312 194.969H483.891ZM541.266 154.469C547.484 154.469 552.656 155.234 556.781 156.766C560.906 158.266 564 160.516 566.062 163.516C568.156 166.516 569.203 170.25 569.203 174.719C569.203 177.5 568.734 180.031 567.797 182.312C566.859 184.594 565.516 186.641 563.766 188.453C562.047 190.234 559.984 191.797 557.578 193.141L577.547 223H556.547L542.016 198.062H537.328V223H518.812V154.469H541.266ZM540.984 168.484H537.328V184.141H540.797C543.641 184.141 545.969 183.516 547.781 182.266C549.594 181.016 550.5 178.781 550.5 175.562C550.5 173.344 549.75 171.609 548.25 170.359C546.75 169.109 544.328 168.484 540.984 168.484ZM614.016 223H595.5V169.609H578.766V154.469H630.703V169.609H614.016V223ZM664.969 179.875L676.781 154.469H696.844L674.297 196.234V223H655.641V196.797L633.094 154.469H653.25L664.969 179.875Z" fill="#FF5B5A"/>
</svg>
